<?xml version="1.0" encoding="UTF-8"?> <svg xmlns="http://www.w3.org/2000/svg" id="Layer_1" data-name="Layer 1" viewBox="0 0 600 600"><defs><style>.cls-1,.cls-2{fill:#231f20;}.cls-2{fill-rule:evenodd;}</style></defs><path class="cls-1" d="M359.68,164.27h4.18q14.94,0,21.56,22.23l1.64,18.35v74.76H358.82V227.19q0-27.58-9.13-27.57H348q-9.9,0-9.91,28.83v51.16H309.89V169.52h26.59v14.37h.78Q345.33,164.29,359.68,164.27Z"></path><path class="cls-1" d="M226.22,39.89q62.71.38,62.72,39.12V82.6q0,24.18-67.08,54.17v84.17L180,221l-.09-181Zm-4.36,33.88v30Q243,94.25,249.43,84.35q0-10.59-11.84-10.58Z"></path><path class="cls-1" d="M275.05,136.08q23.79,2.56,23.79,38v55.63H256.32v4.76q0,25.42,11.35,25.43,9.91-3.6,9.91-14.36v-7.87h21.55l-.29,12.72-1.36,9.51q-8.16,22.23-27,22.24H262q-28.35-6.33-28.35-31.75V197.87q-.69-45.24,8.5-54.8T275.05,136.08ZM256.71,209H276.9q3.89-39.6-9.27-42T256.71,209Z"></path><path class="cls-1" d="M448.42,142.73h4.17q15,0,21.55,22.23l1.65,18.35v74.75H447.55V205.64q0-27.58-9.13-27.57h-1.65q-9.9,0-9.9,28.83v51.16H398.62V148h26.6v14.37H426Q434,142.74,448.42,142.73Z"></path><path class="cls-1" d="M577.91,104.1,532.67,293.79q-3.58,5.63-15.34,5.82H475V277.19h27.86q11.85,0,16-20.19H505.29L471.12,113.8h29.13L525.19,220,548.78,104.1Z"></path><path class="cls-1" d="M245.18,303.28H284.6V441.91h60.18l.1,41.16h-99.7Z"></path><path class="cls-1" d="M386.41,332.76h8.64q28.35,0,28.34,34.26V471.39l-9.89-.1-9.81-17.76h-1.26q-8.25,17.76-22.14,17.76h-2.52q-22.14-4.38-22.13-20.29v-6.41q0-19,35.72-30.48,9.9-8.44,9.9-26.7,0-22.91-12.32-22.91-7.4,0-7.38,24.18l-.1,25.43h-23.4V367q0-23.29,16-31.74ZM372.92,451.87q3.19,10.2,11.16,10.19h2.43q12.33-1.74,12.33-14-4.27-11.46-12.33-11.46h-1.27Q372.91,436.63,372.92,451.87Z"></path><path class="cls-1" d="M485.12,316.76h4.17q15,0,21.56,22.22l1.65,18.36v74.74H484.25V379.67q0-27.59-9.13-27.57h-1.65q-9.9,0-9.9,28.83v51.15H435.31V322h26.61v14.37h.78Q470.74,316.75,485.12,316.76Z"></path><path class="cls-1" d="M565.93,317.29q23.77,2.56,23.78,38v55.63H547.19v4.75q0,25.44,11.35,25.44,9.91-3.6,9.9-14.37v-7.86H590l-.29,12.72-1.36,9.51q-8.16,22.23-27,22.23h-8.54Q524.46,457,524.47,431.6V379.08q-.68-45.24,8.49-54.81T565.93,317.29Zm-18.35,72.95h20.19q3.88-39.6-9.27-42T547.58,390.24Z"></path><path class="cls-1" d="M191.88,512.43l-1.7-3.34h7.89l8.36,16,10.2-20h7v47.92h-8.77l0-27.41-2.63,5.42h-8.8l1.29-2.49-4.55-.06-.77-1.48v28.51h-8.69V512.43Z"></path><path class="cls-1" d="M226.08,504.76h9.1V536q0,8.47,4.94,8.48,5.13-.45,4.93-8.48l.08-31.08H254L254,536q.14,17.22-9.81,19.77H236q-9.84-2.35-9.9-19.77Z"></path><path class="cls-1" d="M272.05,505q14.24,0,14.23,15.65v10.86H276.05V520.6q0-2.93-4-3.92c-2.65,0-4.16,1.59-4.55,4.77v1.76q.5,7.15,4.63,9.22a69.81,69.81,0,0,0,9.14,3.74q5,1.68,5,6.58v3.48q0,8.37-14.23,9.57h-1.7q-13.68,0-13.7-14.78h9.15q0,4.14,1.57,5.46c1.07.87,2.83,1.09,5.26.63q3.15-.6,2.85-3.05-1-4.35-13.1-6.52-5.7-2.07-5.71-11.29v-6.52Q256.67,505,272.05,505Z"></path><path class="cls-1" d="M297.21,504.9l0,50.9h-8.47l0-50.9Z"></path><path class="cls-1" d="M309,537q-.56,10.53,4.06,10.53,5.24.38,4.33-8.64V534.8h7.81l.05,5.45q0,14.76-11.37,14.75-7,.3-10.17-4.74-3-4.87-2.39-18.34l-.13,0q-.62-17.34,2.52-22.38t10.17-4.73q11.37,0,11.37,14.75L325.2,525h-7.81v-4.11q0-5-3.87-5.37c-3.45.14-5,2.57-4.52,7.26Z"></path><path class="cls-1" d="M365.82,506.46v8.22l-13.71,0v13.68l8.23,0v8.2h-8.23v11h13.71v8.22H343.89V506.46Z"></path><path class="cls-1" d="M371.49,512.43l-1.69-3.34h7.89l8.36,16,10.2-20h7v47.92h-8.78l0-27.41-2.63,5.42H383l1.29-2.49-4.55-.06L379,527v28.51h-8.69V512.43Z"></path><path class="cls-1" d="M416.31,504.92Q434,505,434,516v1q0,6.82-18.94,15.29V556l-9.35,0,0-51.12Zm-1.23,9.57V523q6-2.69,7.78-5.48,0-3-3.34-3Z"></path><path class="cls-1" d="M445.65,506.84a21.32,21.32,0,0,1,18.36,0q9.17,4.17,8.68,19.55v8.66q0,14.48-8.88,18.65a20.29,20.29,0,0,1-17.95,0q-9.08-4.19-9.07-18.65v-8.66Q436.49,511,445.65,506.84ZM446.74,526v7.79q-.5,11.7,8.41,12.3,7.13-.06,7.26-12.33v-6.91q.69-12.42-8.05-12.14Q447,515.37,446.74,526Z"></path><path class="cls-1" d="M486.18,504.92Q504,505,504,516v1q0,6.82-12.83,13.92h5q7.82.69,7.82,6l0,15.63h-8.88v-9.65a3.3,3.3,0,0,0-2.25-3.48H485V556l-9.35,0,0-51.12ZM485,514.49V523q6-2.69,7.78-5.48,0-3-3.34-3Z"></path><path class="cls-1" d="M517.29,504.9l0,50.9h-8.47l.06-50.9Z"></path><path class="cls-1" d="M520.66,504.76h9.1V536q0,8.47,4.93,8.48,5.13-.45,4.94-8.48l.08-31.08h8.85l.06,31.08q.14,17.22-9.81,19.77h-8.23q-9.84-2.35-9.89-19.77Z"></path><path class="cls-1" d="M552.92,512.43l-1.7-3.34h7.89l8.37,16,10.19-20h7v47.92h-8.77l0-27.41-2.64,5.42h-8.8l1.29-2.49-4.55-.06-.76-1.48v28.51h-8.7V512.43Z"></path><path class="cls-2" d="M37.59,42.94c35.18,78.67,76.7,162.39,98.16,248.58,2.44,9.78,5.88,10.7,9.5,5.74,11.38-15.58,9.27-22.39,7.15-31a1315,1315,0,0,0-48-152.86c-4.25-11.22-12.19-20.68-27.89-26.73l-27-55.08C41.73,15.75,26,17.09,37.59,42.94Z"></path><path class="cls-2" d="M140.28,340.14c-10.48-2.24-17.91,7.91-8.18,15.84,37.27,30.34,77.76-13.43,63.57-45.18-2.48-5.52-7.95-10.15-11.83-9.13-4.39,1.17-7.12,6.61-8.22,13.47-4,25.14-15.19,29.3-35.34,25Z"></path><path class="cls-2" d="M73.82,554.62c41,25.93,91.74,30.83,112.42,15.26-23.59-1.33-40.38.11-75.83-14-52.77-21-77.67-73-75.49-122.55,1.48-33.7,16.45-63.42,36.19-96.35C106.73,277.62,63,206.06,16,211.31c-19.37,2.25,13.41,26.92,26.81,42.07,16.85,19.06,26.73,38.41,8.54,72.33C26.91,371.21,8.9,401,10.05,441.11,11.39,487.45,34.44,530.42,73.82,554.62Z"></path></svg> 